<svg id="svg1" xmlns="http://www.w3.org/2000/svg" viewBox="0 0 179.97 179.88"><defs><style>.cls-1{fill:#010101;}.cls-2{fill:#fefefe;}</style></defs><path id="path2" class="cls-1" d="M335.86,475.63c.6,1.76,1.25,3.5,1.79,5.27a13.25,13.25,0,0,1-24.37,10.19c-1.13-2.15-2-4.41-3.33-6.63-.29,6.19.61,12.88-5.23,17a18.77,18.77,0,0,1-8.85,3.14,10.79,10.79,0,0,1-11.12-6.76c-1.65-3.95-1.82-8.53-2.64-12.81-.79,1.85-1.61,4-2.59,6.05a13.56,13.56,0,0,1-16.89,7.17c-6.87-2.63-10.14-9.56-7.83-16.77.79-2.48,1.84-4.89,3-7.77a1.91,1.91,0,0,0,0-1l-.69.44c-2.2,2-4.3,4.14-6.62,6-5.89,4.73-13.18,4.11-18.46-1.44-4.41-4.63-4.42-12.06,0-17.4a22.47,22.47,0,0,0,4-5.64c-1.46.59-2.92,1.2-4.39,1.77-8,3.09-15.5.28-18.43-6.92-2.86-7,.4-14.15,8.07-17.64a32.77,32.77,0,0,0,6.88-3.75c-3.07,0-6.14.13-9.2,0a13.23,13.23,0,0,1-12-9.12c-1.71-5.37-.47-11,4-14.13,2.51-1.77,5.81-2.57,8.88-3.34,1.94-.48,4.1-.09,6.27-.72-2.1-.9-4.26-1.71-6.31-2.72-7.07-3.46-9.78-10.92-6.61-18,2.92-6.47,10.31-9.23,17.39-6.45,2.09.81,4.15,1.69,6.69,2.71a2.07,2.07,0,0,0,1.1,0l-.57-.64c-1.85-2-3.76-3.92-5.55-6a13.28,13.28,0,0,1,.11-18.22c5-5.22,12.31-5.69,18.12-1.07,1.64,1.31,3.09,2.86,4.94,4.6a1.79,1.79,0,0,0,.91.36l-.14-1c-.72-1.86-1.48-3.7-2.15-5.57a13.3,13.3,0,0,1,7.5-17,13.08,13.08,0,0,1,16.78,6.42,76.44,76.44,0,0,0,4.47,8.52c0-2.69-.05-5.39,0-8.08.19-7.82,5.62-13.66,12.86-13.89,7.49-.23,13.35,5.29,13.91,13.22a34.8,34.8,0,0,0,.65,6.76c.84-2,1.65-4,2.53-5.95,3.06-6.86,10.34-10.09,17-7.57,7,2.64,10.22,9.7,7.77,17.15a64.44,64.44,0,0,0-2.38,7.26c1.81-1.65,3.57-3.36,5.43-4.95,4-3.44,8.65-4.52,13.6-2.51s8.28,5.72,8.28,11c0,3.36-1.62,6.84-3,10-.74,1.71-2.58,2.94-3.57,5.1,1.71-.69,3.41-1.39,5.13-2.05a13.33,13.33,0,0,1,16.85,6.43,13,13,0,0,1-5.45,17.42c-3.19,1.79-6.61,3.12-9.84,5.25,3.06,0,6.11,0,9.16,0,8.41.1,14.48,5.75,14.47,13.46s-6.15,13.19-14.59,13.28a17.8,17.8,0,0,0-5.32.59c2,.85,4,1.64,5.91,2.56,7.22,3.43,10.18,10.78,7.2,17.8-2.77,6.52-10,9.45-17.25,6.9a81.18,81.18,0,0,0-10.31-3.34c2.28,2.26,4.62,4.45,6.82,6.78,5.26,5.56,5.46,13.56.53,18.57-5.39,5.47-12.88,5.74-18.82.66-1.23-1.06-2.36-2.23-3.87-3.67a5.28,5.28,0,0,0-1.09-.71l.43,1.37Z" transform="translate(-206.25 -324.76)"/><path id="path3" class="cls-2" d="M336,475.48a3.12,3.12,0,0,1-.58-1.23,4.8,4.8,0,0,1,.89.57C336.36,475.1,336.27,475.21,336,475.48Z" transform="translate(-206.25 -324.76)"/><path id="path4" class="cls-2" d="M256.08,354.5a1.58,1.58,0,0,1,.29.87,1,1,0,0,1-.67-.28C255.73,354.78,255.82,354.7,256.08,354.5Z" transform="translate(-206.25 -324.76)"/><path id="path5" class="cls-2" d="M237.72,375.81a1.28,1.28,0,0,1,.69.49,1.77,1.77,0,0,1-.83.08C237.45,376.17,237.52,376.06,237.72,375.81Z" transform="translate(-206.25 -324.76)"/><path id="path6" class="cls-2" d="M257.25,473.24a1.13,1.13,0,0,1,.55-.57,1.54,1.54,0,0,1,0,.77C257.6,473.54,257.5,473.46,257.25,473.24Z" transform="translate(-206.25 -324.76)"/></svg>